<svg id="Capa_1" data-name="Capa 1" xmlns="http://www.w3.org/2000/svg" viewBox="0 0 55.55 189.62"><defs><style>.cls-1{fill:#f29100;}.cls-2{fill:#fff;}.cls-3{fill:#f9bf79;}</style></defs><title>logo3</title><path class="cls-1" d="M90.73,133a20.88,20.88,0,0,1-19.2,22.44c-.53,0-1.07.06-1.6.06-11.47,0-32.28-21.69-20.81-22.5,31.91-2.21,11-30.88,21.69-24.93C83.6,115.22,89.34,120.44,90.73,133Z" transform="translate(-45.78 -107.27)"/><rect class="cls-2" x="15.11" y="79.19" width="26.91" height="110.43"/><path class="cls-3" d="M101.32,153.16a25.22,25.22,0,0,1-26.1,22.42c-14.34,0-26-9.19-26-20.51,0-9.71,27.72,18,37.21-4C96.76,127.2,101.32,141.83,101.32,153.16Z" transform="translate(-45.78 -107.27)"/></svg>